<svg width="50" height="50" viewBox="0 0 50 50" fill="none" xmlns="http://www.w3.org/2000/svg">
<path d="M12.5 4.16663L6.25 12.5V41.6666C6.25 42.7717 6.68899 43.8315 7.47039 44.6129C8.25179 45.3943 9.3116 45.8333 10.4167 45.8333H39.5833C40.6884 45.8333 41.7482 45.3943 42.5296 44.6129C43.311 43.8315 43.75 42.7717 43.75 41.6666V12.5L37.5 4.16663H12.5Z" stroke="#F2E8DF" stroke-width="2" stroke-linecap="round" stroke-linejoin="round"/>
<path d="M6.25 12.5H43.75" stroke="#F2E8DF" stroke-width="2" stroke-linecap="round" stroke-linejoin="round"/>
<path d="M33.3333 20.8334C33.3333 23.0435 32.4553 25.1631 30.8925 26.7259C29.3297 28.2887 27.2101 29.1667 25 29.1667C22.7898 29.1667 20.6702 28.2887 19.1074 26.7259C17.5446 25.1631 16.6666 23.0435 16.6666 20.8334" stroke="#F2E8DF" stroke-width="2" stroke-linecap="round" stroke-linejoin="round"/>
</svg>
