<svg width="49" height="50" viewBox="0 0 49 50" fill="none" xmlns="http://www.w3.org/2000/svg">
<path d="M24.5 45.8333C35.7758 45.8333 44.9167 36.5059 44.9167 25C44.9167 13.4941 35.7758 4.16666 24.5 4.16666C13.2242 4.16666 4.08334 13.4941 4.08334 25C4.08334 36.5059 13.2242 45.8333 24.5 45.8333Z" stroke="#F2E8DF" stroke-width="2" stroke-linecap="round" stroke-linejoin="round"/>
<path d="M36.1667 36.9643V33.9881C36.1667 32.4094 35.5521 30.8954 34.4581 29.7791C33.3642 28.6628 31.8804 28.0357 30.3333 28.0357H18.6667C17.1196 28.0357 15.6358 28.6628 14.5419 29.7791C13.4479 30.8954 12.8333 32.4094 12.8333 33.9881V36.9643" stroke="#F2E8DF" stroke-width="2" stroke-linecap="round" stroke-linejoin="round"/>
<path d="M24.5 22.0834C27.7217 22.0834 30.3333 19.4184 30.3333 16.131C30.3333 12.8436 27.7217 10.1786 24.5 10.1786C21.2783 10.1786 18.6667 12.8436 18.6667 16.131C18.6667 19.4184 21.2783 22.0834 24.5 22.0834Z" stroke="#F2E8DF" stroke-width="2" stroke-linecap="round" stroke-linejoin="round"/>
</svg>
